# xmcd
#
# Track frame offsets:
#	150
#	2675
#	23470
#	52200
#	86770
#	113245
#	142275
#	172745
#	191920
#	204950
#	226260
#	240705
#
# Disc length: 3513 seconds
#
# Revision: 1
# Processed by: cddbd v1.5.1PL0 Copyright (c) Steve Scherf et al.
# Submitted via: EasyCDDAExtractor 8.0.2.1
#
DISCID=9c0db70c
DTITLE=Black Sabbath - Capitol Theater Cardiff 09-03-77
DYEAR=1977
DGENRE=Hard Rock
TTITLE0=Intro
TTITLE1=Symptom Of The Universe
TTITLE2=Snowblind
TTITLE3=War Pigs
TTITLE4=Gypsy
TTITLE5=Black Sabbath
TTITLE6=Dirty Women
TTITLE7=Jam and Drum Solo
TTITLE8=Rock and Roll Doctor
TTITLE9=Guitar Solo
TTITLE10=Electric Funeral
TTITLE11=Jam and Bass Solo
EXTD=
EXTT0=
EXTT1=
EXTT2=
EXTT3=
EXTT4=
EXTT5=
EXTT6=
EXTT7=
EXTT8=
EXTT9=
EXTT10=
EXTT11=
PLAYORDER=
